<svg id="account_circle_black_24dp_3_" data-name="account_circle_black_24dp (3)" xmlns="http://www.w3.org/2000/svg" width="43.544" height="43.544" viewBox="0 0 43.544 43.544">
  <path id="Tracé_1090" data-name="Tracé 1090" d="M0,0H43.544V43.544H0Z" fill="none"/>
  <path id="Tracé_1091" data-name="Tracé 1091" d="M20.143,2A18.143,18.143,0,1,0,38.287,20.143,18.15,18.15,0,0,0,20.143,2Zm0,5.443A5.443,5.443,0,1,1,14.7,12.886,5.436,5.436,0,0,1,20.143,7.443Zm0,25.764A13.064,13.064,0,0,1,9.257,27.364c.054-3.611,7.257-5.588,10.886-5.588,3.611,0,10.832,1.978,10.886,5.588A13.064,13.064,0,0,1,20.143,33.206Z" transform="translate(1.629 1.629)" fill="none" stroke="#0a8471" stroke-width="2"/>
  <path id="Tracé_2158" data-name="Tracé 2158" d="M11.3,28.837l1.737-2.531,2.936-1.275,1.969-.855,4.554-.445,2.781.445,3.794.943,1.713,1.187,1.505,1.733v1.228l-2.734,2.679-3.625,2.209-4.14.622L18.4,34.155,15.434,33.04l-2.99-2.422Z" fill="#0a8471"/>
</svg>
